<svg height="200" viewBox="0 0 320 200" xmlns="http://www.w3.org/2000/svg">
  <rect id="swatch" width="40" height="40"/>
  <use href="#swatch" x="0" fill="rgb(2,8,6)"/>
  <use href="#swatch" x="40" fill="rgb(60,60,59)"/>
  <use href="#swatch" x="80" fill="rgb(10,36,40)"/>
  <use href="#swatch" x="120" fill="rgb(13,75,84)"/>
  <use href="#swatch" x="160" fill="rgb(59,38,27)"/>
  <use href="#swatch" x="200" fill="rgb(172,106,70)"/>
  <use href="#swatch" x="240" fill="rgb(122,114,153)"/>
  <use href="#swatch" x="280" fill="rgb(169,108,126)"/>
  <use href="#swatch" x="0" y="40" fill="rgb(8,26,21)"/>
  <use href="#swatch" x="40" y="40" fill="rgb(22,22,22)"/>
  <use href="#swatch" x="80" y="40" fill="rgb(6,26,29)"/>
  <use href="#swatch" x="120" y="40" fill="rgb(2,26,30)"/>
  <use href="#swatch" x="160" y="40" fill="rgb(32,19,12)"/>
  <use href="#swatch" x="200" y="40" fill="rgb(35,17,7)"/>
  <use href="#swatch" x="240" y="40" fill="rgb(23,20,33)"/>
  <use href="#swatch" x="280" y="40" fill="rgb(34,16,22)"/>
  <use href="#swatch" x="0" y="80" fill="rgb(37,79,68)"/>
  <use href="#swatch" x="40" y="80" fill="rgb(70,70,69)"/>
  <use href="#swatch" x="80" y="80" fill="rgb(30,77,85)"/>
  <use href="#swatch" x="120" y="80" fill="rgb(14,79,88)"/>
  <use href="#swatch" x="160" y="80" fill="rgb(92,62,46)"/>
  <use href="#swatch" x="200" y="80" fill="rgb(100,57,34)"/>
  <use href="#swatch" x="240" y="80" fill="rgb(71,65,93)"/>
  <use href="#swatch" x="280" y="80" fill="rgb(96,55,68)"/>
  <use href="#swatch" x="0" y="120" fill="rgb(70,133,116)"/>
  <use href="#swatch" x="40" y="120" fill="rgb(119,119,118)"/>
  <use href="#swatch" x="80" y="120" fill="rgb(58,131,143)"/>
  <use href="#swatch" x="120" y="120" fill="rgb(31,133,148)"/>
  <use href="#swatch" x="160" y="120" fill="rgb(152,107,85)"/>
  <use href="#swatch" x="200" y="120" fill="rgb(165,100,66)"/>
  <use href="#swatch" x="240" y="120" fill="rgb(121,112,151)"/>
  <use href="#swatch" x="280" y="120" fill="rgb(158,99,117)"/>
  <use href="#swatch" x="0" y="160" fill="rgb(112,189,168)"/>
  <use href="#swatch" x="40" y="160" fill="rgb(172,171,171)"/>
  <use href="#swatch" x="80" y="160" fill="rgb(96,187,202)"/>
  <use href="#swatch" x="120" y="160" fill="rgb(52,191,212)"/>
  <use href="#swatch" x="160" y="160" fill="rgb(205,160,138)"/>
  <use href="#swatch" x="200" y="160" fill="rgb(221,153,119)"/>
  <use href="#swatch" x="240" y="160" fill="rgb(173,166,200)"/>
  <use href="#swatch" x="280" y="160" fill="rgb(208,154,169)"/>
</svg>
