<svg height="200" viewBox="0 0 320 200" xmlns="http://www.w3.org/2000/svg">
  <rect id="swatch" width="40" height="40"/>
  <use href="#swatch" x="0" fill="rgb(1,2,2)"/>
  <use href="#swatch" x="40" fill="rgb(3,18,20)"/>
  <use href="#swatch" x="80" fill="rgb(7,51,57)"/>
  <use href="#swatch" x="120" fill="rgb(226,228,230)"/>
  <use href="#swatch" x="160" fill="rgb(23,92,103)"/>
  <use href="#swatch" x="200" fill="rgb(193,125,102)"/>
  <use href="#swatch" x="240" fill="rgb(68,42,32)"/>
  <use href="#swatch" x="280" fill="rgb(134,128,160)"/>
  <use href="#swatch" x="0" y="40" fill="rgb(15,25,19)"/>
  <use href="#swatch" x="40" y="40" fill="rgb(5,26,28)"/>
  <use href="#swatch" x="80" y="40" fill="rgb(2,26,30)"/>
  <use href="#swatch" x="120" y="40" fill="rgb(20,23,24)"/>
  <use href="#swatch" x="160" y="40" fill="rgb(3,26,30)"/>
  <use href="#swatch" x="200" y="40" fill="rgb(35,17,10)"/>
  <use href="#swatch" x="240" y="40" fill="rgb(33,18,12)"/>
  <use href="#swatch" x="280" y="40" fill="rgb(23,20,31)"/>
  <use href="#swatch" x="0" y="80" fill="rgb(53,76,63)"/>
  <use href="#swatch" x="40" y="80" fill="rgb(29,78,83)"/>
  <use href="#swatch" x="80" y="80" fill="rgb(16,79,87)"/>
  <use href="#swatch" x="120" y="80" fill="rgb(66,71,73)"/>
  <use href="#swatch" x="160" y="80" fill="rgb(18,78,88)"/>
  <use href="#swatch" x="200" y="80" fill="rgb(99,57,42)"/>
  <use href="#swatch" x="240" y="80" fill="rgb(94,60,47)"/>
  <use href="#swatch" x="280" y="80" fill="rgb(71,66,89)"/>
  <use href="#swatch" x="0" y="120" fill="rgb(94,128,108)"/>
  <use href="#swatch" x="40" y="120" fill="rgb(56,132,140)"/>
  <use href="#swatch" x="80" y="120" fill="rgb(34,133,147)"/>
  <use href="#swatch" x="120" y="120" fill="rgb(113,120,124)"/>
  <use href="#swatch" x="160" y="120" fill="rgb(38,133,148)"/>
  <use href="#swatch" x="200" y="120" fill="rgb(163,100,79)"/>
  <use href="#swatch" x="240" y="120" fill="rgb(155,105,86)"/>
  <use href="#swatch" x="280" y="120" fill="rgb(120,114,146)"/>
  <use href="#swatch" x="0" y="160" fill="rgb(144,182,159)"/>
  <use href="#swatch" x="40" y="160" fill="rgb(94,188,198)"/>
  <use href="#swatch" x="80" y="160" fill="rgb(58,191,210)"/>
  <use href="#swatch" x="120" y="160" fill="rgb(166,172,176)"/>
  <use href="#swatch" x="160" y="160" fill="rgb(65,190,210)"/>
  <use href="#swatch" x="200" y="160" fill="rgb(216,155,134)"/>
  <use href="#swatch" x="240" y="160" fill="rgb(207,159,140)"/>
  <use href="#swatch" x="280" y="160" fill="rgb(172,167,195)"/>
</svg>
